HIERARCHY
ROOT Hips
{
	OFFSET 0.000000 0.000000 0.000000
	CHANNELS 6 Xposition Yposition Zposition Xrotation Yrotation Zrotation
	JOINT LeftUpLeg_virtual
	{
		OFFSET 0.000000 0.000000 0.000000
		CHANNELS 3 Xrotation Yrotation Zrotation
		JOINT LeftUpLeg
		{
			OFFSET 11.394100 -6.187798 -0.413800
			CHANNELS 3 Xrotation Yrotation Zrotation
			JOINT LeftLeg
			{
				OFFSET 0.430247 -32.302673 3.732800
				CHANNELS 3 Xrotation Yrotation Zrotation
				JOINT LeftFoot
				{
					OFFSET -0.430247 -48.264931 -6.423300
					CHANNELS 3 Xrotation Yrotation Zrotation
					JOINT LeftToeBase
					{
						OFFSET 4.230900 -16.068199 23.438400
						CHANNELS 3 Xrotation Yrotation Zrotation
						JOINT LeftToe_End
						{
							OFFSET 4.510700 0.695400 19.974600
							CHANNELS 3 Xrotation Yrotation Zrotation
							End Site
							{
								OFFSET 0 0 0
							}
						}
					}
				}
			}
		}
	}
	JOINT RightUpLeg_virtual
	{
		OFFSET 0.000000 0.000000 0.000000
		CHANNELS 3 Xrotation Yrotation Zrotation
		JOINT RightUpLeg
		{
			OFFSET -11.333700 -6.187798 -0.413800
			CHANNELS 3 Xrotation Yrotation Zrotation
			JOINT RightLeg
			{
				OFFSET -0.430392 -32.302628 3.733000
				CHANNELS 3 Xrotation Yrotation Zrotation
				JOINT RightFoot
				{
					OFFSET 0.430392 -48.264973 -6.423500
					CHANNELS 3 Xrotation Yrotation Zrotation
					JOINT RightToeBase
					{
						OFFSET -4.230900 -16.068199 23.438400
						CHANNELS 3 Xrotation Yrotation Zrotation
						JOINT RightToe_End
						{
							OFFSET -4.510700 0.695400 19.974600
							CHANNELS 3 Xrotation Yrotation Zrotation
							End Site
							{
								OFFSET 0 0 0
							}
						}
					}
				}
			}
		}
	}
	JOINT Spine_virtual
	{
		OFFSET 0.000000 0.000000 0.000000
		CHANNELS 3 Xrotation Yrotation Zrotation
		JOINT Spine
		{
			OFFSET -0.002400 12.777504 0.315300
			CHANNELS 3 Xrotation Yrotation Zrotation
			JOINT Spine1
			{
				OFFSET -0.002067 5.816869 0.032633
				CHANNELS 3 Xrotation Yrotation Zrotation
				JOINT Spine1_split
				{
					OFFSET -0.002067 5.816869 0.032633
					CHANNELS 3 Xrotation Yrotation Zrotation
					JOINT Spine2
					{
						OFFSET -0.002067 5.816869 0.032633
						CHANNELS 3 Xrotation Yrotation Zrotation
						JOINT Neck_virtual
						{
							OFFSET 0.000000 0.000000 0.000000
							CHANNELS 3 Xrotation Yrotation Zrotation
							JOINT Neck
							{
								OFFSET -0.003700 21.199493 -0.826900
								CHANNELS 3 Xrotation Yrotation Zrotation
								JOINT Head
								{
									OFFSET 0.000000 20.442200 4.834800
									CHANNELS 3 Xrotation Yrotation Zrotation
									JOINT HeadTop_End
									{
										OFFSET 0.000000 34.668396 4.968400
										CHANNELS 3 Xrotation Yrotation Zrotation
										End Site
										{
											OFFSET 0 0 0
										}
									}
								}
							}
						}
						JOINT LeftShoulder_virtual
						{
							OFFSET 0.000000 0.000000 0.000000
							CHANNELS 3 Xrotation Yrotation Zrotation
							JOINT LeftShoulder
							{
								OFFSET 3.288150 8.794197 -1.372250
								CHANNELS 3 Xrotation Yrotation Zrotation
								JOINT LeftShoulder_split
								{
									OFFSET 3.288150 8.794197 -1.372250
									CHANNELS 3 Xrotation Yrotation Zrotation
									JOINT LeftArm
									{
										OFFSET 11.953299 -2.279007 -0.146200
										CHANNELS 3 Xrotation Yrotation Zrotation
										JOINT LeftForeArm
										{
											OFFSET 18.448900 0.000000 0.000000
											CHANNELS 3 Xrotation Yrotation Zrotation
											JOINT LeftHand
											{
												OFFSET 29.527798 0.000000 0.000000
												CHANNELS 3 Xrotation Yrotation Zrotation
												End Site
												{
													OFFSET 0 0 0
												}
											}
										}
									}
								}
							}
						}
						JOINT RightShoulder_virtual
						{
							OFFSET 0.000000 0.000000 0.000000
							CHANNELS 3 Xrotation Yrotation Zrotation
							JOINT RightShoulder
							{
								OFFSET -3.249400 8.794197 -1.372250
								CHANNELS 3 Xrotation Yrotation Zrotation
								JOINT RightShoulder_split
								{
									OFFSET -3.249400 8.794197 -1.372250
									CHANNELS 3 Xrotation Yrotation Zrotation
									JOINT RightArm
									{
										OFFSET -11.953299 -2.279007 -0.146200
										CHANNELS 3 Xrotation Yrotation Zrotation
										JOINT RightForeArm
										{
											OFFSET -18.448900 0.000000 0.000000
											CHANNELS 3 Xrotation Yrotation Zrotation
											JOINT RightHand
											{
												OFFSET -29.527802 0.000000 0.000000
												CHANNELS 3 Xrotation Yrotation Zrotation
												End Site
												{
													OFFSET 0 0 0
												}
											}
										}
									}
								}
							}
						}
					}
				}
			}
		}
	}
}
MOTION
Frames: 8
Frame Time: 0.03333333
2.304728 88.419022 1.373180 0.000000 0.000000 0.000000 5.874840 -65.249924 8.475400 -38.363970 3.905405 14.971758 40.910624 -8.460644 -2.626402 -7.608805 -3.678512 -12.769448 2.293870 0.119148 0.521407 0.000000 0.000000 0.000000 0.025346 -59.420897 4.968580 -35.783539 -0.741937 -24.320950 37.810158 -3.353539 -5.837542 -3.365456 1.902385 20.782160 -14.437761 5.003942 -3.718193 0.000000 0.000000 0.000000 -2.959471 -63.034067 0.504609 6.852386 3.475956 -4.142707 6.649297 0.745357 -5.869919 2.297396 -1.525988 0.673302 0.000000 0.000000 0.000000 6.787576 1.207582 -5.057306 -14.976665 23.399835 4.543749 -1.448958 15.692187 1.105125 0.000000 0.000000 0.000000 6.570161 0.682552 -5.380541 -6.462643 -21.029729 -2.346519 -8.982033 1.327824 -2.470415 -14.334706 20.550738 -27.881334 0.149934 -32.797277 1.953032 0.000000 0.000000 0.000000 6.402227 1.223773 -5.216554 -4.293903 3.906512 6.973464 1.187101 -0.717865 -0.159396 -38.577602 -21.650031 30.204411 -171.651820 61.703642 169.242771 0.000000 0.000000 0.000000 
0.242569 88.554276 1.532337 0.000000 0.000000 0.000000 4.774377 -65.393836 7.868022 -37.607466 6.349263 16.338519 41.075467 -9.604288 -2.742307 -6.746630 -3.871523 -11.179124 2.091559 0.079911 0.680983 0.000000 0.000000 0.000000 0.109327 -60.228232 5.053484 -37.211284 -0.457708 -23.604423 44.164789 -2.703744 -5.542999 -2.194006 3.052921 17.246019 -9.898975 5.017975 -3.733979 0.000000 0.000000 0.000000 -2.868747 -63.455872 1.654837 6.670278 2.913702 -4.440653 5.845599 0.309610 -6.514345 0.795600 -2.142360 -0.174658 0.000000 0.000000 0.000000 5.706653 0.944114 -5.892337 -13.610562 23.320962 3.063055 -0.445428 15.800861 0.774478 0.000000 0.000000 0.000000 5.822793 0.390999 -5.905817 -6.102557 -20.308896 -1.326917 -8.931600 -0.597902 -0.780418 -16.093017 18.222455 -27.722669 0.662819 -35.313922 1.937566 0.000000 0.000000 0.000000 5.313007 0.705949 -5.783743 -4.486631 2.205447 6.605849 1.079870 -1.427778 0.451482 -39.394554 -22.090263 30.407142 -172.798759 57.972173 170.684925 0.000000 0.000000 0.000000 
-3.613909 88.782555 1.481342 0.000000 0.000000 0.000000 4.123980 -63.762637 7.923389 -36.367274 9.673390 18.056845 39.027964 -9.931098 -3.348964 -6.005942 -3.317179 -9.958116 2.508660 0.063220 0.684594 0.000000 0.000000 0.000000 0.808704 -60.566771 6.068701 -41.817632 0.605142 -23.480181 54.260099 0.624080 -5.688443 3.149048 6.781124 19.812186 -15.640286 5.491559 -6.113463 0.000000 0.000000 0.000000 -1.158390 -63.039552 4.163655 6.664884 2.304335 -4.392479 4.522650 -0.436423 -8.180905 -0.388238 -2.005436 -0.412951 0.000000 0.000000 0.000000 4.063027 0.326069 -7.582907 -11.966099 22.940387 0.277428 0.018713 15.224958 1.624001 0.000000 0.000000 0.000000 4.400965 -0.213123 -7.419011 -5.635344 -18.325128 0.634549 -8.046164 -1.376358 0.376989 -18.484932 15.867895 -27.103864 0.545512 -39.420929 1.272578 0.000000 0.000000 0.000000 3.516897 -0.171921 -7.301040 -4.630762 0.837626 5.399118 2.461498 -0.341000 1.331782 -42.182272 -27.401396 30.520082 -173.696697 50.717645 172.343786 0.000000 0.000000 0.000000 
-8.646497 88.808006 1.149693 0.000000 0.000000 0.000000 4.438154 -61.274576 8.919389 -34.684619 13.273002 19.754630 35.669611 -9.804692 -4.023968 -5.255653 -2.586327 -10.103621 2.064742 0.061714 0.703441 0.000000 0.000000 0.000000 2.474979 -59.813073 8.233252 -47.454867 2.522389 -23.739550 64.282783 4.915529 -6.721225 8.438253 11.586910 25.257951 -27.064345 6.385699 -9.162766 0.000000 0.000000 0.000000 1.793357 -61.676308 7.621561 6.852007 1.676649 -4.151100 3.025745 -1.231003 -10.405682 -0.711532 -1.427813 -0.205844 0.000000 0.000000 0.000000 2.207284 -0.407939 -9.708996 -10.195168 22.241056 -3.241231 -0.221713 13.914957 3.228306 0.000000 0.000000 0.000000 2.609963 -0.911173 -9.505800 -5.381763 -15.388766 3.077130 -7.195855 -1.467928 1.044064 -21.489411 14.290695 -25.972600 -0.001054 -45.088302 0.265947 0.000000 0.000000 0.000000 1.365962 -1.052973 -9.383177 -4.789429 0.190920 3.476750 4.862529 1.916162 1.642898 -47.433205 -35.209550 28.615190 -173.767758 44.140729 173.329451 0.000000 0.000000 0.000000 
-14.092243 88.526299 0.707523 0.000000 0.000000 0.000000 5.716864 -58.666312 10.852424 -32.769974 16.307869 21.243027 32.192451 -10.395143 -4.063938 -4.355789 -2.447131 -12.529265 0.027776 0.158955 0.841990 0.000000 0.000000 0.000000 4.245969 -58.052407 10.707483 -51.773671 4.725437 -23.961057 70.464453 7.532085 -7.630225 11.201124 13.975234 28.671970 -33.366977 6.346711 -11.020944 0.000000 0.000000 0.000000 5.250441 -59.863050 11.359657 7.092384 1.074781 -3.850796 1.609879 -1.792842 -12.554320 -0.505520 -1.721857 0.221235 0.000000 0.000000 0.000000 0.533962 -0.970584 -11.683303 -8.616616 21.247247 -6.662299 -1.435582 12.467462 4.924160 0.000000 0.000000 0.000000 0.919657 -1.421703 -11.466489 -5.435259 -12.224157 5.982382 -6.142379 -1.270381 1.215033 -24.962895 13.696628 -24.363964 -0.181381 -51.905083 -0.405495 0.000000 0.000000 0.000000 -0.664923 -1.640653 -11.418208 -5.100135 0.481353 0.756030 6.551252 3.332577 1.451244 -55.614122 -41.939936 23.090660 -173.285219 40.418686 173.585843 0.000000 0.000000 0.000000 
-19.552254 87.822052 0.392063 0.000000 0.000000 0.000000 7.535987 -56.086754 13.305220 -30.350096 18.408806 22.197922 29.520795 -11.535914 -3.202020 -4.519164 -2.785575 -15.562332 -1.969330 0.328773 0.578913 0.000000 0.000000 0.000000 6.027615 -56.103481 13.287710 -54.270149 6.804026 -24.545306 70.678121 7.832443 -7.157661 11.573665 12.162484 28.473604 -29.156568 4.099658 -10.573559 0.000000 0.000000 0.000000 8.604081 -57.652042 14.627678 7.150236 0.492358 -3.566830 0.554993 -1.941140 -14.000809 -0.378621 -2.079736 1.172598 0.000000 0.000000 0.000000 -0.528907 -1.238110 -12.951194 -7.563169 20.045885 -9.392033 -3.622123 11.021380 5.909204 0.000000 0.000000 0.000000 -0.269888 -1.554105 -12.687612 -5.802239 -9.331544 8.898089 -5.478639 -1.079247 0.826096 -27.983862 14.534678 -22.861753 1.009586 -58.958131 0.187930 0.000000 0.000000 0.000000 -2.034316 -1.784451 -12.808559 -5.362890 1.902751 -2.754057 6.751380 2.934125 1.404593 -65.324722 -44.711692 14.794627 -172.434136 39.543264 173.084712 0.000000 0.000000 0.000000 
-24.763966 86.864838 0.055817 0.000000 0.000000 0.000000 9.086246 -53.714967 15.561775 -26.930688 19.025926 22.296427 28.044994 -13.371074 -1.590363 -5.692657 -3.204222 -18.099064 -2.709155 0.664159 -0.586425 0.000000 0.000000 0.000000 7.702612 -54.496700 15.719139 -55.128864 9.058275 -25.578519 65.200255 6.341161 -5.671699 11.396942 7.405982 25.924304 -19.778903 0.908795 -7.706650 0.000000 0.000000 0.000000 11.559834 -55.052175 17.214862 6.949452 -0.010213 -3.268187 0.095361 -1.684529 -14.322683 -0.000324 -2.318880 1.672318 0.000000 0.000000 0.000000 -0.707196 -1.144196 -13.199045 -7.153944 18.732786 -11.025643 -6.798171 9.863539 5.577718 0.000000 0.000000 0.000000 -0.602880 -1.339942 -12.744153 -6.349640 -6.933776 11.263249 -5.101534 0.015940 0.543013 -30.108300 16.663872 -22.043597 4.065034 -65.464522 2.638664 0.000000 0.000000 0.000000 -2.396122 -1.518265 -13.137808 -5.422480 4.195293 -7.197404 6.191724 1.177882 1.885914 -72.240397 -42.895992 7.874575 -171.486830 40.243277 172.116054 0.000000 0.000000 0.000000 
-29.455244 85.781174 -0.319603 0.000000 0.000000 0.000000 10.306224 -51.406767 17.320508 -23.890665 18.004042 22.226115 27.549956 -16.111737 0.271596 -6.747528 -3.706122 -20.000790 -2.136955 1.245890 -3.009265 0.000000 0.000000 0.000000 9.300487 -53.520092 17.572793 -54.756718 11.523873 -26.763005 55.660694 4.344149 -4.563167 12.295457 2.170246 24.128833 -12.188230 -1.631020 -4.176615 0.000000 0.000000 0.000000 14.039305 -52.757829 19.037954 6.657204 -0.279569 -2.802895 0.274798 -1.052867 -13.422463 0.962183 -2.465237 1.577133 0.000000 0.000000 0.000000 0.116636 -0.708524 -12.303304 -7.465503 17.260037 -11.076357 -10.533894 9.708816 3.762685 0.000000 0.000000 0.000000 0.089037 -0.835173 -11.619270 -6.894030 -5.197333 12.792307 -4.540339 1.997205 0.679853 -31.419563 19.816291 -22.398468 8.990499 -70.258946 6.994389 0.000000 0.000000 0.000000 -1.590737 -0.981427 -12.327411 -5.045240 6.990049 -12.454128 4.216120 -0.181853 1.820716 -73.526242 -39.100156 5.275344 -170.459023 41.951736 170.919419 0.000000 0.000000 0.000000 
